Coordinates
version=1
nRows=6
nColumns=63
inDegrees=yes

Units are S.I. units (second, meters, Newtons, ...)
If the header above contains a line with 'inDegrees', this indicates whether rotational values are in degrees (yes) or radians (no).

endheader
time	pelvis_tilt	pelvis_list	pelvis_rotation	pelvis_tx	pelvis_ty	pelvis_tz	hip_flexion_r	hip_adduction_r	hip_rotation_r	knee_angle_r	knee_angle_r_beta	ankle_angle_r	subtalar_angle_r	mtp_angle_r	hip_flexion_l	hip_adduction_l	hip_rotation_l	knee_angle_l	knee_angle_l_beta	ankle_angle_l	subtalar_angle_l	mtp_angle_l	L5_S1_Flex_Ext	L5_S1_Lat_Bending	L5_S1_axial_rotation	L4_L5_Flex_Ext	L4_L5_Lat_Bending	L4_L5_axial_rotation	L3_L4_Flex_Ext	L3_L4_Lat_Bending	L3_L4_axial_rotation	L2_L3_Flex_Ext	L2_L3_Lat_Bending	L2_L3_axial_rotation	L1_L2_Flex_Ext	L1_L2_Lat_Bending	L1_L2_axial_rotation	L1_T12_Flex_Ext	L1_T12_Lat_Bending	L1_T12_axial_rotation	Abs_r3	Abs_r2	Abs_r1	Abs_t1	Abs_t2	neck_flexion	neck_bending	neck_rotation	arm_flex_r	arm_add_r	arm_rot_r	elbow_flex_r	pro_sup_r	wrist_flex_r	wrist_dev_r	arm_flex_l	arm_add_l	arm_rot_l	elbow_flex_l	pro_sup_l	wrist_flex_l	wrist_dev_l
      6.81666667	      0.26622940	    -13.18549673	     94.17617614	      0.29685643	      0.83405158	      0.59186208	     12.59716231	      0.94942926	     -9.65232947	     12.38448005	      0.21614995	     33.92168242	     14.53858437	      0.00000000	     12.90977297	     -1.50304040	     -6.96621581	     11.27950033	      0.19686442	     33.81912778	     13.08802381	      0.00000000	     -0.00954708	     -0.16584010	     -0.85718109	     -0.01772988	     -0.22056733	     -0.91075490	     -0.01568489	     -0.40322361	     -0.91075490	     -0.01091136	     -0.40322361	     -0.75003345	     -0.00886542	     -0.33818113	     -0.69645963	     -0.00545520	     -0.25688631	     -0.64288581	     -0.06819382	     -1.87601634	     -4.76738404	      0.00000000	      0.00000000	      6.22417103	      0.76863911	     -4.77653881	     27.31938973	     -6.58993773	     16.84121459	     64.00324371	     51.20125755	     -5.01264780	      7.46248759	     24.34631567	     -7.50838456	     15.09876156	     69.47930990	     78.67446321	     -9.27399924	     10.18952965
      6.83333333	      0.46934164	    -12.33694080	     95.14861075	      0.29545680	      0.83626452	      0.59041534	     10.75701481	      1.22369941	     -9.71873562	     10.74388453	      0.18751616	     32.95731529	     14.14385373	      0.00000000	     11.83500643	     -1.54055307	     -5.64208369	     10.76002396	      0.18779785	     33.44141301	     12.79817180	      0.00000000	     -0.06447249	     -0.13420517	     -1.12894770	     -0.11973186	     -0.17849288	     -1.19950693	     -0.10592186	     -0.32630645	     -1.19950693	     -0.07368561	     -0.32630645	     -0.98782924	     -0.05986916	     -0.27367118	     -0.91727001	     -0.03683958	     -0.20788381	     -0.84671078	     -0.46052056	     -1.51815574	     -6.27886844	      0.00000000	      0.00000000	      8.26118272	      0.01646818	     -4.09070566	     27.31569959	     -7.37462637	     18.97158040	     63.15195087	     55.63087945	     -5.07972489	      5.30147135	     23.20921536	     -8.21476036	     14.25167797	     69.63216590	     79.69229245	     -6.74158704	      7.03287941
      6.85000000	      0.40219824	    -11.74843860	     95.73734277	      0.29475965	      0.83786895	      0.58929908	      9.42866253	      1.24403018	     -9.45560274	      9.62229816	      0.16794078	     32.33208371	     13.54472278	      0.00000000	     11.09523252	     -1.40208499	     -4.76540590	     10.47287534	      0.18278616	     33.25820321	     12.50404451	      0.00000000	     -0.09057612	     -0.14924432	     -1.20580075	     -0.16820891	     -0.19849494	     -1.28116330	     -0.14880751	     -0.36287263	     -1.28116330	     -0.10351945	     -0.36287263	     -1.05507566	     -0.08410899	     -0.30433901	     -0.97971311	     -0.05175519	     -0.23117945	     -0.90435057	     -0.64697617	     -1.68828157	     -6.70630206	      0.00000000	      0.00000000	     10.64630721	     -0.27103662	     -4.73191569	     26.18273567	     -8.49672886	     19.68742239	     63.46556792	     62.76999254	     -6.15087355	      3.09496247	     22.50000358	     -9.08362676	     14.44767822	     69.84226408	     83.90048983	     -4.73902920	      4.42181113
      6.86666667	      0.27105317	    -11.38225733	     96.10406853	      0.29435615	      0.83901545	      0.58873625	      8.52222076	      1.18468806	     -8.77601597	      8.87916197	      0.15497061	     31.85224213	     12.45708897	      0.00000000	     10.61758433	     -1.22569601	     -4.04313341	     10.24862883	      0.17887232	     33.05514443	     12.15844801	      0.00000000	     -0.09388587	     -0.17084824	     -1.18129943	     -0.17435545	     -0.22722816	     -1.25513065	     -0.15424509	     -0.41540041	     -1.25513065	     -0.10730216	     -0.41540041	     -1.03363700	     -0.08718242	     -0.34839373	     -0.95980579	     -0.05364639	     -0.26464392	     -0.88597457	     -0.67061737	     -1.93266944	     -6.57003305	      0.00000000	      0.00000000	     13.15927366	     -0.24698508	     -5.54885995	     24.22180905	     -9.65557862	     18.87786726	     64.64399703	     75.15459695	     -8.21917482	      1.78632804	     21.99480095	    -10.38009000	     15.55706320	     70.34707911	     87.27294841	     -3.24434772	      2.49285939
      6.88333333	      0.20202374	    -11.02991201	     96.52897722	      0.29342692	      0.84000154	      0.58874693	      7.69830241	      1.10463841	     -8.55595641	      8.29577178	      0.14478853	     31.52996654	     11.72921727	      0.00000000	     10.22119079	     -1.09810582	     -3.61355828	     10.08349771	      0.17599024	     32.87824452	     12.18183862	      0.00000000	     -0.09798987	     -0.18032965	     -1.12280845	     -0.18197699	     -0.23983843	     -1.19298398	     -0.16098756	     -0.43845351	     -1.19298398	     -0.11199262	     -0.43845351	     -0.98245739	     -0.09099340	     -0.36772822	     -0.91228186	     -0.05599141	     -0.27933062	     -0.84210634	     -0.69993186	     -2.03992504	     -6.24472375	      0.00000000	      0.00000000	     15.40432492	     -0.11477890	     -6.69916877	     22.16422204	    -11.37112689	     18.24855704	     65.74463758	     85.15156661	     -9.48965609	     -0.58935469	     21.67672301	    -12.10209430	     17.80172039	     70.86228255	     88.36953779	     -3.02048944	      0.33671931
      6.90000000	      0.33289893	    -10.63407028	     96.82336189	      0.29200779	      0.84085280	      0.58956595	      7.04084065	      1.14764523	     -8.65006698	      8.04271250	      0.14037181	     31.23902234	     11.48854471	      0.00000000	      9.87432349	     -1.17172725	     -3.35283170	     10.05189877	      0.17543873	     32.79958048	     12.25965274	      0.00000000	     -0.11856580	     -0.14876248	     -1.07584508	     -0.22018856	     -0.19785410	     -1.14308540	     -0.19479176	     -0.36170110	     -1.14308540	     -0.13550886	     -0.36170110	     -0.94136445	     -0.11010021	     -0.30335645	     -0.87412413	     -0.06774850	     -0.23043308	     -0.80688381	     -0.84690369	     -1.68283094	     -5.98352760	      0.00000000	      0.00000000	     17.42630761	      0.12510597	     -7.23734510	     20.64992998	    -13.72061488	     18.81387111	     66.73232179	     88.31153381	     -9.65226991	     -2.65551770	     21.11670031	    -13.93230888	     19.63079940	     71.79187533	     88.84037398	     -2.96930483	     -0.69249376
